<?xml version="1.0" encoding="UTF-8" standalone="no"?>
<!-- Created with Inkscape (http://www.inkscape.org/) -->

<svg
   xmlns:dc="http://purl.org/dc/elements/1.1/"
   xmlns:cc="http://creativecommons.org/ns#"
   xmlns:rdf="http://www.w3.org/1999/02/22-rdf-syntax-ns#"
   xmlns:svg="http://www.w3.org/2000/svg"
   xmlns="http://www.w3.org/2000/svg"
   xmlns:sodipodi="http://sodipodi.sourceforge.net/DTD/sodipodi-0.dtd"
   xmlns:inkscape="http://www.inkscape.org/namespaces/inkscape"
   width="60mm"
   height="60mm"
   viewBox="0 0 60 60"
   version="1.1"
   id="svg3757"
   inkscape:version="0.92.4 (unknown)"
   sodipodi:docname="lefat-logo.svg">
  <defs
     id="defs3751" />
  <sodipodi:namedview
     id="base"
     pagecolor="#ffffff"
     bordercolor="#666666"
     borderopacity="1.0"
     inkscape:pageopacity="0.0"
     inkscape:pageshadow="2"
     inkscape:zoom="1.979899"
     inkscape:cx="116.01886"
     inkscape:cy="133.3382"
     inkscape:document-units="mm"
     inkscape:current-layer="layer1"
     showgrid="false"
     inkscape:window-width="1729"
     inkscape:window-height="1040"
     inkscape:window-x="441"
     inkscape:window-y="686"
     inkscape:window-maximized="0" />
  <metadata
     id="metadata3754">
    <rdf:RDF>
      <cc:Work
         rdf:about="">
        <dc:format>image/svg+xml</dc:format>
        <dc:type
           rdf:resource="http://purl.org/dc/dcmitype/StillImage" />
        <dc:title></dc:title>
      </cc:Work>
    </rdf:RDF>
  </metadata>
  <g
     inkscape:label="Ebene 1"
     inkscape:groupmode="layer"
     id="layer1"
     transform="translate(0,-237)">
    <path
       style="fill:#f58525;stroke-width:0.26458332"
       inkscape:connector-curvature="0"
       id="path6"
       d="M 57.396187,267.01596 C 57.356497,282.08927 45.217416,294.35535 30.014458,294.358 14.605126,294.363 2.5586464,281.86437 2.6036255,266.92335 2.6486045,251.9691 14.748001,239.65539 29.980062,239.64216 c 15.160625,-0.0132 27.421417,12.2608 27.416125,27.3738 z M 29.995937,240.9836 C 15.719022,240.9201 3.9635839,252.575 3.9371255,266.9551 c -0.026458,14.38275 11.6945835,26.05617 26.0297075,26.07469 14.284854,0.0185 26.085271,-11.57287 26.090562,-26.01648 0.0079,-14.48594 -11.829521,-26.09585 -26.061458,-26.02971 z"
       class="st1" />
    <path
       style="fill:#f58321;stroke-width:0.26458332"
       inkscape:connector-curvature="0"
       id="path16"
       d="m 22.008167,271.70437 c 0,2.1008 -0.01852,4.08782 0.0053,6.07219 0.0291,2.55323 0.09525,5.10381 0.140229,7.65704 0.0079,0.39688 0,0.79375 0,1.27794 -0.256654,-0.082 -0.433924,-0.12435 -0.597966,-0.19844 -6.072188,-2.74108 -10.279063,-7.22048 -12.0517713,-13.64985 -2.2013335,-7.97719 -0.248709,-15.00981 5.5800633,-20.89944 3.209395,-3.24379 7.159625,-5.16202 11.660187,-5.81554 10.453686,-1.51606 19.536832,4.24921 23.050499,12.82435 2.780771,6.78392 2.119312,13.35617 -1.783292,19.57388 -1.666875,2.65642 -3.90525,4.75985 -6.551083,6.43996 -0.246063,0.1561 -0.508,0.28575 -0.828146,0.46566 -0.03175,-0.20637 -0.06879,-0.33866 -0.07144,-0.47095 -0.01323,-0.82286 -0.02646,-1.64836 -0.0291,-2.47121 -0.0026,-9.55146 0,-19.10557 0,-28.65702 0,-0.1905 0,-0.37836 0,-0.58473 -0.153458,-0.11377 -0.304271,-0.22225 -0.521229,-0.38365 -0.608542,0.4445 -1.264708,0.83873 -1.820333,1.34144 -1.158875,1.04775 -2.217209,2.18281 -3.008313,3.556 -0.936625,1.62719 -1.584854,3.34433 -1.875896,5.19377 -0.193145,1.23031 -0.28575,2.47121 -0.20902,3.7121 0.11377,1.86532 0.267229,3.72798 0.849312,5.5245 0.333375,1.03188 0.751417,2.01613 1.439333,2.86015 0.1905,0.23283 0.254,0.45773 0.254,0.74612 -0.0053,3.25438 -0.0026,6.50875 0,9.76313 0,0.46567 0.01852,0.92869 0.02117,1.39435 0.0026,0.53446 0,0.5424 -0.534458,0.67998 -0.367771,0.0953 -0.735542,0.19579 -1.11125,0.24871 -2.206625,0.30956 -4.418542,0.43921 -6.641041,0.15611 -0.164041,-0.0212 -0.322791,-0.0662 -0.537104,-0.10848 -0.01587,-0.73819 -0.03969,-1.45257 -0.04233,-2.16694 -0.0053,-1.05569 0.01323,-2.11402 0.0026,-3.16971 -0.02381,-2.02671 -0.06085,-4.05077 -0.100542,-6.07483 -0.0291,-1.41023 -0.04763,-2.82311 -0.121708,-4.23069 -0.02646,-0.49742 0.153458,-0.77523 0.563562,-1.00277 0.738188,-0.41011 1.449917,-0.86254 2.185457,-1.27794 0.423334,-0.23812 0.616479,-0.52123 0.613834,-1.05304 -0.02381,-5.0509 -0.01588,-10.10179 -0.01588,-15.15269 0,-0.14816 0.01058,-0.29633 -0.0053,-0.4445 -0.04233,-0.42333 -0.169333,-0.53975 -0.605896,-0.54769 -0.402165,-0.008 -0.804332,-0.0106 -1.206499,0 -0.436562,0.0106 -0.555625,0.12436 -0.608541,0.55298 -0.0026,0.0212 -0.0026,0.0423 -0.0026,0.0635 -0.03704,0.94721 -0.07673,1.89177 -0.111125,2.83898 -0.06615,1.87325 -0.121708,3.7465 -0.195792,5.61975 -0.0344,0.87842 -0.105833,1.75684 -0.161396,2.67759 -0.457729,0 -0.912812,0 -1.402291,0 -0.01852,-0.11377 -0.05556,-0.23284 -0.05556,-0.35455 -0.04233,-2.99508 -0.07408,-5.99016 -0.119062,-8.98789 -0.01058,-0.77258 -0.0635,-1.54517 -0.0979,-2.40506 -0.648229,0 -1.211792,-0.0132 -1.775354,0.008 -0.235479,0.008 -0.386292,0.15875 -0.367771,0.42333 0.0053,0.0635 0,0.127 0,0.1905 -0.02381,2.40771 -0.03704,4.81277 -0.07937,7.22048 -0.02381,1.28058 -0.100542,2.56116 -0.153458,3.89731 -0.420688,0 -0.849313,0 -1.293813,0 -0.01058,-0.0159 -0.05556,-0.0476 -0.05821,-0.082 -0.04498,-0.94721 -0.07673,-1.89442 -0.129646,-2.83898 -0.05821,-1.04775 -0.137583,-2.0955 -0.206375,-3.14325 -0.0026,-0.0423 -0.0026,-0.0847 -0.0053,-0.127 -0.03704,-1.09537 -0.06879,-2.1881 -0.108479,-3.28348 -0.02117,-0.58737 -0.05821,-1.17739 -0.08467,-1.76477 -0.01058,-0.26458 -0.124354,-0.47889 -0.394229,-0.48948 -0.584729,-0.0265 -1.172104,-0.008 -1.778,-0.008 -0.0344,0.19315 -0.07408,0.31221 -0.07408,0.43127 -0.03969,2.29923 -0.0926,4.59846 -0.105833,6.89769 -0.01852,2.93688 0.01058,5.8764 -0.01852,8.81327 -0.0053,0.49213 0.164041,0.77788 0.560916,1.02129 0.926042,0.54769 1.828271,1.13242 2.7305,1.70127 z"
       class="st0" />
  </g>
</svg>
